<svg xmlns="http://www.w3.org/2000/svg" width="64" height="64" viewBox="0 0 64 64">
  <g id="Grupo_4" data-name="Grupo 4" transform="translate(-605 -662.567)">
    <g id="Grupo_3" data-name="Grupo 3">
      <g id="Grupo_2" data-name="Grupo 2">
        <g id="Grupo_9" data-name="Grupo 9" transform="translate(643.509 700.433)">
          <path id="Trazado_5" data-name="Trazado 5" d="M2043.007,151.026a4.643,4.643,0,0,1-3.282-7.926l14.849-14.849a4.643,4.643,0,0,1,6.566,6.566l-14.85,14.848A4.625,4.625,0,0,1,2043.007,151.026Z" transform="translate(-2038.365 -126.892)" fill="#55e5bc"/>
        </g>
        <path id="Trazado_6" data-name="Trazado 6" d="M2015.561,136.042a4.605,4.605,0,0,1-1.2-.159l-16.178-4.334a12.548,12.548,0,0,1-8.848-8.848l-5.4-20.156a12.545,12.545,0,0,1,3.238-12.086L2001.932,75.7a12.548,12.548,0,0,1,12.085-3.238l20.158,5.4a12.551,12.551,0,0,1,8.847,8.848l4.334,16.178a4.613,4.613,0,1,1-8.912,2.388L2034.11,89.1a3.3,3.3,0,0,0-2.325-2.324l-20.155-5.4a3.294,3.294,0,0,0-3.173.85L1993.7,96.983a3.3,3.3,0,0,0-.851,3.174l5.4,20.156a3.294,3.294,0,0,0,2.323,2.323l16.178,4.335a4.614,4.614,0,0,1-1.194,9.071Z" transform="translate(-1378.515 590.525)" fill="#1f2d52"/>
      </g>
    </g>
  </g>
</svg>
